<?xml version="1.0" encoding="UTF-8"?>
<svg version="1.1" viewBox="0 0 1264 1232" width="1280" height="1280" xmlns="http://www.w3.org/2000/svg">
<path transform="translate(593,164)" d="m0 0h59l5 2 31 2 13 3 15 2 9 2 11 2 5 2 16 4 34 12 25 10 19 10 20 11 19 12 14 8 10 9 10 7 8 7v2l4 2 9 7 8 7 7 6v2h2l5 7-2 9-6 16-8 16-6 13-6 15-26 52-9 19-11 23-12 23-10 23-8 16-7 15-13 29-8 16-12 25-9 20-12 22-8 15-4 10-6 12-22 46-3 6-3 2-4-4-9-19-11-20-6-11-10-19-8-19-12-24-11-23-13-28-11-23-10-23-16-33-8-16-12-21-12-22-11-19-6-11-14-22-8-10-7-10-10-12-6-8-9-10-25-25-14-11-11-9-6-3-6-5-19-9-20-7-19-5-13-3-23-2-8-4v-4l10-7 9-6 8-6 14-9 23-12 15-7 17-6 12-5 15-7 19-6 13-2 5-2 11-2 7-2 20-2 4-2 28-1 9-2z" fill="#8AC5BF"/>
<path transform="translate(507,495)" d="m0 0 4 2 40 80 11 23 10 19 15 33 14 30 12 28 8 16 16 33 9 17 9 16 8 13 14 25 11 17 8 13 8 11 4 6 14 15 6 8 4 5v2l4 2 6 7 5 5 5 4v2l4 2 11 8 8 6 6 4 13 8 16 8 19 8 13 4 10 2 4 2 20 1 7 3 11 1 3 2-1 4-8 4-11 7-10 7-23 13-11 5-25 12-28 12-18 6-8 3-14 3-1 1-16 2-5 2-23 2-3 2-51 3-6 1h-21l-44-3-35-5-24-5-23-6-28-10-29-12-15-8-6-5-16-8-24-13-11-9-8-6-9-8-7-4-8-8-15-11-12-12-2-6 1-7 6-16 10-19 11-23 21-42 9-20 7-14 9-20 10-21 4-10 12-22 9-20 11-23 9-17 11-23 9-19 5-13 7-14 13-28 8-17 11-23 7-14 5-9 2-6z" fill="#F372A4"/>
<path transform="translate(1017,391)" d="m0 0 4 2 12 21 11 21 13 34 6 18 7 27 6 28 2 10 2 9v105l-1 14-2 5-1 17-2 10-4 16-9 31-7 21-7 16-10 18-11 16-8 10-6 7-8 7-10 10-16 9-20 8-22 6-31 4-22-3-19-5-9-3-5-3-9-2-9-5-9-9-11-9-7-8-1-2v-7l8-16 7-15 9-20 7-15 9-19 5-10 12-26 8-16 14-29 9-19 6-12 8-18 5-10 11-23 11-25 16-32 14-29 23-46 9-20 5-12 15-30z" fill="#ECAB59"/>
<path transform="translate(339,349)" d="m0 0h9l9 2 11 1 8 3 12 2 16 8 9 5 10 7 8 6 7 5 6 10v10l-9 19-26 52-3 8-17 33-6 15-8 16-8 17-8 16-12 25-8 18-8 16-12 23-14 29-8 16-5 14-31 62-5 12-4 10-12 23-7 14-4 2-9-11-4-8-2-8-11-23-8-18-8-20-4-15-3-10-1-11-3-7-2-12-2-5-1-18-2-8-1-3v-109l3-6 1-22 3-8 2-13 6-19 5-17 14-33 8-16 12-20 16-17 8-8h2l2-4 9-7 15-8 12-5 8-3 14-2 5-2 21-2z" fill="#BBB885"/>
<path transform="translate(755,396)" d="m0 0 15 3h27l5-2h9l17 2 2 1h14l17 1 4 3 5 2 7-1 7-3 5-1 8-4 4 2 3 3 1 5-13 27-4 8-11 23-12 23-10 23-8 16-7 15-13 29-8 16-12 25-9 20-12 22-8 15-4 10-6 12-22 46-3 6-3 2-4-4-9-19-11-20-6-11-10-19-8-19-12-24-11-23-13-28-11-23-10-23-16-33-8-16-12-21-12-22-11-19-6-11-4-6 1-5 4-1 10 6 5-1 5 1 11-2 11 1h23l4 1h42l5 1 7-2 3-3 7-1 13-2h8l8 2 13-1 5 1z" fill="#BBB885"/>
<path transform="translate(507,495)" d="m0 0 4 2 40 80 11 23 10 19 15 33 14 30 12 28 8 16 16 33 9 17 9 16 8 13 13 23-1 5h-3v3l-4 1-5-3-6-2v2h-5l1 2-13-2-4 1v2l-4-1-3-1 1 4h-12v-4l-5 2-1 2h-10l-1-1h-9l-2-2h-15l-3 1h-6l-5 1-10-2h-51l-4-2v2l-9-1-3 1h-6l-3 1-6 1-3-1-9 3-7-1-8-4-16 1-3-2-9 1-10-1-3-2-8-1-1-4-5-1-5-8-7 1-5 3v-3l-6 4h-2v2l-8 6-7-1 5-13 8-16 13-28 9-19 4-10 12-22 9-20 11-23 9-17 11-23 9-19 5-13 7-14 13-28 8-17 11-23 7-14 5-9 2-6z" fill="#F39178"/>
<path transform="translate(946,303)" d="m0 0 1 2h2l-1 9-5 13-8 16-6 13-6 15-17 34-3-3v-2l-6-2-10 5-7 1-6 3-6-1-6-3-1-1-21-1h-10l-2-1-17-2h-9l-5 2h-27l-15-3-4 3-9-1-9 1-8-2h-10l-11 2-7 1-5 4-8 1-2-1h-43l-3-1h-28l-8-1-9 2-7-1h-4l-9-5-4 1-2 2-11-17-9-11-4-6-10-12-6-8-9-10-23-23v-2l9-1 8 2 9 2h8l4 2 6-1 8-2 4 1v-2l9-1 5 2 7-3 1-1h13l5 1 3-4h10l7 1 16-1 10-1 13-1 16 1h38l10 1 8-2h13l10-1 6 2h30l9 1h15l9 1h9l5 1 14-1 4 2 11-1h33l7-2 5-2h9l7 4 10-2 3 1h8l6-2z" fill="#AABB98"/>
<path transform="translate(175,535)" d="m0 0h6l8 4 9 6 7 3 10 5h35l2 1 12 1 13 2 12-2h10l2 1h8l6-2h5l6-2 6-1 8 1 10-3 10-5 2-2h3v-2l6-4 4-1v2h2v10l-10 21-8 16-12 25-8 18-8 16-12 23-14 29-8 16-5 14-31 62-5 12-4 10-12 23-7 14-4 2-9-11-4-8-2-8-11-23-8-18-8-20-4-15-3-10-1-11-3-7-2-12-2-5-1-18-2-8-1-3v-109l3-6 1-15 1-5z" fill="#ECAB59"/>
<path transform="translate(833,975)" d="m0 0h4l11 1 8 3 20 1 7 3 11 1 3 2-1 4-8 4-11 7-10 7-23 13-11 5-25 12-28 12-18 6-8 3-14 3-1 1-16 2-5 2-23 2-3 2-51 3-6 1h-21l-44-3-35-5-24-5-23-6-28-10-29-12-15-8-6-5-16-8-24-13 1-4 5-2-5-5-2-1v-5l11 1v-2h9l6 2 14 1v-2l6 1v-2h5l4 3 8 1h11l15 3 2 1 6-1 5 2h9l15 2 11 1 16 1 7 1 10-2 3-2 17 1 10-3 12 2 9 2h23l6-1 5 1h8l9-1 10-1 6 2h14 3l12-2 10 1h6l1 1 7 1 1-3 10-1 4-1v2h9l7-2 5-1 9-1 6 1 16-1 11-2v2l9-1 1-3 8 1 1-3 11-3h7v-2l8-1z" fill="#F365B3"/>
<path transform="translate(377,817)" d="m0 0h5l6 9 5 1v3l8 1 3 2 11 1 8-1 3 2h7l9-1 11 5 9-1 6-2h3 6l1-1h8l5-1 5 2-1-3 7 2h49l10 2 11-1 5-1h14l1 2h9l1 1 10 1 2-4h4l1 3h7l4 1-1-4 4 1 3 1-1-3 6-1 11 2-1-2 6 1v-2l6 1 5 3 2-1 2 1-2-5 5 2 1-3 3 3 10 16 7 11 8 11 4 6 14 15 6 8 4 5v2l4 2 6 7 5 5 5 4v2l4 2 11 8 8 6-3 3-6-2-13-10-9-7-5-6-4-3v-2l-3-1-7-8v-2l-4-2v-2h-2l-3-4v-2h-2l-8-10-2-1-1 4h-2l3 10-1 3-4 1 2 7-4 1v2l-2 1-2 4-5-1-16 3-5-3h-5l-4 1-18-6-14-2-4 4-6-2-2 1-22 2-3 1-11-1v-2l-7 1h-7l-8 1h-12l-6-2-5 2h-12l-5 1-4-3-5 1-3 2-9-1v-2l-4-1-5-2-12 2-11-1-13 1-21 4-7 1-11 3-5-2h-6l-2-1h-6l-4 3-8 1-6-5-7-2-6-2-8-1v-2h-8l-2-1-5 2h-6l-2-2v-6l-3-1v-9l4-13-1-1-6 8h-2l-2 6-2 2-1-3 9-19 20-40 10-2 3-1 1-3h2v-2l9-5v3z" fill="#F5808F"/>
<path transform="translate(593,164)" d="m0 0h59l5 2 31 2 13 3 15 2 9 2 11 2 5 2 16 4 34 12 25 10 19 10 9 5v10h-7l-2 5-5 1-9-2-3-1-10 2h-18l-27-2-8 3h-16l-10 1h-5l-4 2-7-2-18 1-8-1-17-1-9 3-1 2-4-3-7-1-3 2-9-1-12 1-1-1h-17l-8 2-14-1-5-1v-2l-9 1-6 2h-10l-9-3-14 1-2 1h-12l-9-2-7 4-6-1-3-2h-12l-6 1-3-2h-11l-8 3h-3v3h-8l-3 2-12 1-3-2-5 2h-4v2l-4 1h-10v2h-2l-1 2h-2l-2 2h-12l-2 3h-2v2h-18l-8-4v-4l10-7 9-6 8-6 14-9 23-12 15-7 17-6 12-5 15-7 19-6 13-2 5-2 11-2 7-2 20-2 4-2 28-1 9-2z" fill="#81C7CA"/>
<path transform="translate(866,740)" d="m0 0 2 1-1 2h2v2l4 2 1 6 2 1v3l3-1 4 3 13 1h7l2-1h7l2 1 5-2 3 2 10-1 20 1 11-1h10l5 1h16l6 2 7 2h9l4 3 7 1 4 1 5 5 2 4 2-1 1 2 4-1 2-1 6 2-1 6-8 17-9 15-12 17-9 10-6 7-16 14-14 8-20 8-22 6-31 4-22-3-19-5-9-3-5-3-9-2-9-5-9-9-11-9-7-8-1-2v-7l8-16 7-15 9-20 3-6 1 2 6-2 4-5 1-2h2l1-4 6-10 1-3h2l1-4 5-6z" fill="#F48884"/>
<path transform="translate(834,532)" d="m0 0 4 4 1 9-22 46-10 21-9 20-12 22-8 15-4 10-6 12-22 46-3 6-3 2-4-4-9-19-11-20-6-11-10-19-8-19-12-24-11-23-13-28-11-23-2-5v-8l2-3 5 1v2l4 2 7 4 4 3 5 2 2 2 12 3 8 4 4 1 6-1 2 1 1-3 10-4 1-1h15l11-3h22l1-1h10l5-1h5v2l10-3 8 2 5-5 8-2 8-4z" fill="#ECAB59"/>
<path transform="translate(507,495)" d="m0 0 4 2 40 80 11 23 10 19 15 33 14 30 8 19-2 8-4-1-9-11v-3l-4 1-5-5-7-2-5-3v-2l-9-1-6-4-5 1-3 1-4-1h-4l-1-6h-3l-1 2v-2l-7 2-9 1-6-1-1 3-3 1v-2l-9 2-4 2h-13-3-14l-10 2-9 2-5-1-8 3v-2l-7 3-7 7-2 3-6-1-2-1 1-7 24-48 10-21 5-13 7-14 13-28 8-17 11-23 7-14 5-9 2-6z" fill="#ECAC59"/>
<path transform="translate(1e3 672)" d="m0 0 6 1 2 3h11l9 1 3-1 6 5 1 2 4 1 7-2 5 2v-2h2l2-4 5-1 2 5 3-1 1-3 4 2 1 5-1 17-2 10-4 16-9 31-7 21-8-2-3 2h-3l-1-2-2 1-3-6v-2l-4-2h-7l-6-3-4-1h-6l-12-3-2-1h-15l-8-1h-9l-11 1-22-1-6 1-4-2-5 2-1-1h-7l-2 1h-9l-12-1-3-3-4 1-1-4-2-4v-3l-4-2 1-2h-2l-1-2-5 4-2 3h-2l-2 6h-2l-1 4-5 9-2 4h-2l-2 5-5 4h-4l1-7 8-16 8-17 12-26 10-20 5 1-1 4 4-2 5-5 4-5h2l2-4h3v2l12-1 3-1 4-1 5-1 8 1v-3l7-1 5 1 14 3 5-1 4-1h7l4-3h7l1 4h7l1-4 10 3 3 1v-4l-2-1 1-3z" fill="#F1A062"/>
<path transform="translate(946,303)" d="m0 0 1 2h2l-1 9-5 13-13 26-7-5-3-1-1 3-4 1h-7l-4-1-5 1-13-1-9-1-3-1-4 3h-13v-2l-10-1-16 1v-2h-2v-2l-2 1-15 1-5-2-6 1-9 1h-27l-9 1-20-3-4-1-6 1h-11l-3-1-17 3h-14l-5-1h-8l-5 2-4-1-13 1-14 2-6-2-5 1h-10l-6-1-12 2h-23l-3 2-9-1-5-1-1 1-8-1-8-2-12-1-7-8-24-24v-2l9-1 8 2 9 2h8l4 2 6-1 8-2 4 1v-2l9-1 5 2 7-3 1-1h13l5 1 3-4h10l7 1 16-1 10-1 13-1 16 1h38l10 1 8-2h13l10-1 6 2h30l9 1h15l9 1h9l5 1 14-1 4 2 11-1h33l7-2 5-2h9l7 4 10-2 3 1h8l6-2z" fill="#A0BEA6"/>
<path transform="translate(860,271)" d="m0 0h18l7 3 4-1 3-2h10l3 1 2-1 6 1 5-1 8 7 8 6 6 5 4 4v2h2l5 7-1 5-1-2h-4l-4 4-9 1h-5l-3-1-8 2-7-4h-10l-5 3-11 1h-28l-11 1-4-2-16 1-3-1h-10l-10-1h-17l-8-1h-29l-4-2-18 1-11 1-7 1-10-1h-37l-13-1-17 1-14 2h-11l-3-1h-10l-3 4-5-1h-13l-7 4-4-1-2-1h-9v2l-9 1-5 2-6-1-2-1h-10l-11-3-9-1-5 1-16-13-10-8-6-3-6-5 1-3 9 1 3 1h27l4 1 4-3 10-1 1-1 10 1 4-2h6l4-2 16-1 3-1 13-1 4 1h9l6-1h8l1 1 19-1 6-1 15 1h26l11 2h113l7-2h29l4-1 6 2h9l1-1 13-1z" fill="#94C2B4"/>
<path transform="translate(535,673)" d="m0 0h6l1 6 7-1 2 1 3-2 5 1 5 3 9 2v2l4 1 6 3 4 1 3 4 2-1 2 1 4 7 6 7 3 1 1-7 3 3 12 25 8 18-6-1v-4l-4-2-8-12v9l3 15-3 1v2l4 3-5-1-3-2v-2l-4-1v2h-3v2h-11l-2 2-9-1-7-1h-8l-4 2-2-1h-19l-3-1h-21l-26 4-4-2h-10l-2 2h-10l-7-2-10-1-1 1h-8l-1-2-7-1-1-3-5-2-6-7-2-4v-3l-4 1-3-1-9 5-3 3-7 11-4 7-4 8h-7l2-7 6-13 8-16 8-15 8-18 4-8 1 2 8 1 7-8 5-4 5 1 7-3 8 1 12-3 10-1h8 3 13l7-3h6 3l1-2 17-1z" fill="#F1A062"/>
<path transform="translate(411,462)" d="m0 0 1 3h2l-1 6-4 8-3 8-17 33-6 15-5 10-2-1 1-7-5-1-5 4h-2v2l-9 5-6 3-10 3-9-1-10 2-2 1-6 1-4 1h-8l-2-1h-12l-11 2-15-2-9-1-7-1h-30l-22-11-7-5-5-2h-8v5h-1v-7l3-8 2-13 6-19 4-14 5-1 10 1h15l7 2 16 2 4 1h14l8 2 9-1h17l2 1 13-3 7 2 10 1v-2l6-1 5-1 4 2h35l14-7 9-5z" fill="#CEB371"/>
<path transform="translate(614,477)" d="m0 0 9 4 18 6 17 3 8-1v2l13-2 1-1h17l1 1 7 1v-2l3-1 21 1 8 2 7 1 8 2h30l10-2h6l4 1 11-1 9-3h2l1-4 7-1 12-2 1-1h7v3l7 1 2 4 3 3-9 20-8 16-7 15-1-2-2-1-1-4-2-2-13 10-7 3-7 2-5 4-9-2-5 2-8-1-8 1h-7l-5 1h-19l-10 3h-15l-8 4-3 1-1 2-9 1-10-4-8-3-6-2-2-2-7-3-5-4-7-4-1-2-4-1-2 9-3-4-5-12-16-33-8-16-1-3z" fill="#CEB371"/>
<path transform="translate(824,1010)" d="m0 0 3 2v3l5-2 4 1-2 7-3-1 3 3-1 3-25 12-28 12-18 6-8 3-14 3-1 1-16 2-5 2-23 2-3 2-51 3-6 1h-21l-44-3-35-5-24-5-23-6-28-10-29-12-15-8-1-2 6 1 3 1v2l6 1 3 2 5 1v-3l-5-3-5-6 1-4 6 2h13l5 2h12l6 2 14 4 3 1 9-1 5 2 6-1 1 1 8-2h5v2l4-1v2l3-1 1 1 10-1 4-1h3l10 1h14l10 2 10-1 9 2h22l2 1h18l12-1 7 1v-2h7l6 1 6-1 1 1h16l4 1v-2l9-1 24-3h13l5-2 13-2 14-4h9l5-2 18-2z" fill="#F658BB"/>
<path transform="translate(344,864)" d="m0 0 1 3 3 2 5-1 5 2 4 1 3-1 4 1 4-1 2 3 16 1 4 1h15l11 6h4v2h8 3l16-4 2-3 14-1 9 1 20 7 5 2h24l1-1h8v2l14-1 7-1h7l10-3 9-1 4-2v-3l13 1 21-3 7 2 1-2h17l23-1 8-1 4-2 9 3 9 6 2 2 4 1-1 7h-2l3 10-1 3-4 1 2 7-4 1v2l-2 1-2 4-5-1-16 3-5-3h-5l-4 1-18-6-14-2-4 4-6-2-2 1-22 2-3 1-11-1v-2l-7 1h-7l-8 1h-12l-6-2-5 2h-12l-5 1-4-3-5 1-3 2-9-1v-2l-4-1-5-2-12 2-11-1-13 1-21 4-7 1-11 3-5-2h-6l-2-1h-6l-4 3-8 1-6-5-7-2-6-2-8-1v-2h-8l-2-1-5 2h-6l-2-2v-6l-3-1v-9l5-16 8-8z" fill="#F57C97"/>
<path transform="translate(1017,391)" d="m0 0 4 2 12 21 11 21 13 34 6 18 7 27 6 28 2 10 1 2v7l-4-2-6-5v-2l-5-1-3 3-5 1-4 2-33 5h-5l-4-2h-8l-15 2-6-4-4 2-5-1-7-7-7-4v-2l-12 2-2 4-3 1-1 3h-2l-2 4-1-2 16-32 11-23 24-48 9-20 5-12 15-30z" fill="#CEB371"/>
<path transform="translate(363,795)" d="m0 0h3v6l-1 2 3 3 4 1 1-3 4-1 3 1 3-1h10l7 1v2h8l4 1 6-3 6 2 6-1 13-2 6 1 3 2 1-3h5l4-3 6 1 8 1 1-1h12l11-1 4-2 9 1v2l5 2 24-1v-2l3-1h6l4 1 5-2h5v2l5 1v-2l9-1 14 1 5-2 9 4h6l5 3v-2l3 1v2l8-1v-3l8 1 4-1h2l2 2 5 3v2h5l5 7v2h2l6 11 2 1 2 4v3l-4 1-5-3-6-2v2h-5l1 2-13-2-4 1v2l-4-1-3-1 1 4h-12v-4l-5 2-1 2h-10l-1-1h-9l-2-2h-15l-3 1h-6l-5 1-10-2h-51l-4-2v2l-9-1-3 1h-6l-3 1-6 1-3-1-9 3-7-1-8-4-16 1-3-2-9 1-10-1-3-2-8-1-1-4-5-1-5-8-7 1-5 3v-3l-6 4h-2v2l-8 6-7-1 5-13 8-16z" fill="#F48883"/>
<path transform="translate(866,740)" d="m0 0 2 1-1 2h2v2l4 2 1 6 2 1v3l3-1 4 3 13 1h7l2-1h7l2 1 5-2 3 2 10-1 20 1 11-1h10l5 1h16l6 2 7 2h9l4 3 7 1 4 1 5 5 2 4 2-1 1 2 2-1-1 4-6 10-5 8-3 8-3 7h-2l-1-2h-2l-2-4-5-4v-2l-7 2-4 1-10-2-12-1-7 1h-7l-8-1-8 2-11-1-9 3-6-1h-19l-9 1-5-3-1 3-5-2h-11l-11-5-1 2-5 2-3 1h-3l-4-1-1-1-2 3-7-2-5-1-5-3-7 2 8-18 3-6 1 2 6-2 4-5 1-2h2l1-4 6-10 1-3h2l1-4 5-6z" fill="#F28E7D"/>
<path transform="translate(1070,705)" d="m0 0 4 1 1 3-2 5-5 22-13 42-2 2-7-2-3 2h-3l-1-2-2 1-3-6v-2l-4-2h-7l-6-3-4-1h-6l-12-3-2-1h-15l-8-1h-9l-11 1-22-1-6 1-4-2-5 2-1-1h-7l-2 1h-9l-12-1-3-3-4 1-1-4-2-4v-3l-4-2 1-2h-2l-1-2-5 4-2 3h-2l-2 6h-2l-1 4-5 9-2 4h-2l-2 5-5 4h-4l1-7 8-16 8-17 8-18 6-1 2 4 1 8 4 2 6-1h3 4 2l1-2 1 2 8-4 11-1h2v-3l4-2 10 4 16-2v-2l10 1 5-3 7 1h10l5-1h4l1-2h6 2l10-2 2 1v-2l11 1 7 1 4 2v2h2l1-3h7l5 1 1-4 8-4 3 6 2 2 1 9 1 2 1-6 1-5 4-3 5-3 4-9z" fill="#F2986E"/>
<path transform="translate(411,699)" d="m0 0 4 1-3 10-1 4-2 7-1 8h3v1l10 1 7-1v2l4-2h5l1 2 9-2 8 4h4l2-2 2 1v-3l15-3 1-2h3v2h2v-2l8-4 3 1 1 2 4 1 5-3 15-3 2-4 1 2 9-1 4-1 14 2 5 1 6 3 6 1 5 4 4 1-1 2h7l10 4 4-6 5-2 2-5h2v2h2v2h2l3 6 3 19 1 4-3 1v2l4 3-5-1-3-2v-2l-4-1v2h-3v2h-11l-2 2-9-1-7-1h-8l-4 2-2-1h-19l-3-1h-21l-26 4-4-2h-10l-2 2h-10l-7-2-10-1-1 1h-8l-1-2-7-1-1-3-5-2-6-7-2-4v-3l-4 1-3-1-9 5-3 3-7 11-4 7-4 8h-7l2-7 6-13 8-16 8-15 8-18 4-1z" fill="#F2986E"/>
<path transform="translate(287,720)" d="m0 0 3 2v6l-12 25-17 34-5 12-4 10-12 23-7 14-4 2-9-11-4-8-2-8-11-23-8-18-8-20-3-10v-6l6-2 4-5 7-4 3-2 5 1h9l7-1 3 1v2l16-2 8 2 9-1 6-1h3l5-2 2-2 5-2z" fill="#F8916E"/>
<path transform="translate(376,770)" d="m0 0h5l1 5 6-1h4l9-2 8 1 2 2h8l3 3 7 1h3l11-1 6 4 7 1h3v-2l7-2 5 3 9-1 10 2 14-2 4-1h18l20 1 15-3h5l-1 2h5l5-3 18 2 4 1 9-1 2 1-1-4 4 1 5 3 8 1 4 3-1-4 5-2h3l2 3h2l1 4 2 4v4l3 1 7 14h-2v-2l-6-2-1-3-3 1-2-1-1 2-8-2v3l-2 1h-6l-3-3v2l-5-2h-7l-8-4-5 2-15-1h-8v2h-6l1-3-9 2-3 1-3-1h-8v2l-18 2h-6l-6-3-3-2h-6l-3 2-12 1h-11l-5 1-6-2-6 1-3 2h-4l-1 2-5-2-13 1-6 2-7-1-3-1-7 3-11-2v-2l-5 1-2-1h-10l-4 1-4-1-3 3h-5l-2-3-2 1 2-6 1-4h-2l1-5 9-19z" fill="#F28E7E"/>
<path transform="translate(377,817)" d="m0 0h5l6 9 5 1v3l8 1 3 2 11 1 8-1 3 2h7l9-1 11 5 9-1 6-2h3 6l1-1h8l5-1 5 2-1-3 7 2h49l10 2 11-1 5-1h14l1 2h9l1 1 10 1 2-4h4l1 3h7l4 1-1-4 4 1 3 1-1-3 6-1 11 2-1-2 6 1v-2l6 1 7 4-2 6-1 2h-3l1 3-3 2h-3l-1 2-13 1-14-1-3 1-9-2-7 1v-2l-17 2h-5v2l-16 2-5 4-12-1-3-1-7 1h-22l-3-1h-17v2h-7l-8-3-9-3-8-1h-10l-5 3h-24v-2l-9 2h-19l-6-2h-7l-7-3h-10l-6 1-2-1v-2l-5 2-3-1-7-2v-11l3-8 3-1 1-3h2v-2l9-5v3z" fill="#F5848C"/>
<path transform="translate(339,349)" d="m0 0h9l9 2 11 1 8 3 12 2 16 8 9 5 10 7 8 6 7 5 1 4-10-4v-3h-2l-2 6-5-2-1 2-5-3-1 4-3 3-4 2-19 1-7 1-2-1h-6l-3 2h-13l-6-1-5 1-4-1-31-2-15-4-7-2-13 1-5-2h-8l-6-3-3 2-9 1 1-4 14-14 15-8 12-5 8-3 14-2 5-2 21-2z" fill="#AABB98"/>
<path transform="translate(946,303)" d="m0 0 1 2h2l-1 9-4 10h-6l-8 4-6 1-1-7-7 2-10 2h-6l-8 2-2-1h-8l-3 1h-11l-4-2-5-1-5-2h-15l-3 1h-9l-12 2-7-1-22 2h-12l-16-2v-2l-14-1-9 1h-7l-5 2-6-1-14-4h-21l-2 2-20-1-17 2h-17v-1h-29l-1-1h-7l-11 3h-19l-4 3-7-1-6-2v-2l-7 3-6 2-5-1-2-1h-19l-10-10v-2l9-1 8 2 9 2h8l4 2 6-1 8-2 4 1v-2l9-1 5 2 7-3 1-1h13l5 1 3-4h10l7 1 16-1 10-1 13-1 16 1h38l10 1 8-2h13l10-1 6 2h30l9 1h15l9 1h9l5 1 14-1 4 2 11-1h33l7-2 5-2h9l7 4 10-2 3 1h8l6-2z" fill="#9BBFAB"/>
<path transform="translate(593,164)" d="m0 0h59l5 2 31 2 13 3 15 2 9 2 11 2 8 3-2 4-8 5-14 3h-10l-5 1h-22l-2 1-27 1h-43l-40-2-25 1h-10v-2l-15 1h-24l-12-2-5-5 1-2 13-4 13-2 5-2 11-2 7-2 20-2 4-2 28-1 9-2z" fill="#76C9D4"/>
<path transform="translate(252,680)" d="m0 0 9 2 5 4 4 1 1 3 9 5 3-1 5-5 2 4v2h2l1 2 5-1v-2h2l1-3 4 1-1 5-7 14-5 14-1 2h-2v-5h-3l-5 6-5 2-4 3-5 1v-2l-12 3-9-1-3-1-6 1h-9v-2l-10 1h-9l-5-1-7 5-5 3-4 4-5 1-3-10-1-11-3-7-2-12-2-5v-8h1l1 6 6-3 3-4 2-5h4l9-1 8 4 10-1 6-2 2 1 4-3h5l4 1-1-4 12 1z" fill="#F1A062"/>
<path transform="translate(810,828)" d="m0 0h1v5l5-1-1-2 6 1 2-2 4 5 5 9 7 2v2l4 1v2h5l4 3 9 2h5l2 4 4 1v2l3-1 14 1 2 1v-2l6-1-1 3 11-2h4l7-2h11l4 1 1-2 17-1 11-2 2 2h3l1-2 4-1 2-2h8v2l8-3 5-2 14-8 2-1v2l4-1-2 4-5 6-16 14-14 8-20 8-22 6-31 4-22-3-19-5-9-3-5-3-9-2-9-5-9-9-11-9-7-8-1-2v-7l2-3 3-1z" fill="#F5808F"/>
<path transform="translate(866,740)" d="m0 0 2 1-1 2h2v2l4 2 1 6 2 1v3l3-1 4 3 13 1h7l2-1h7l2 1 5-2 3 2 10-1 20 1 11-1h10l5 1h16l6 2 7 2h9l4 3 7 1 4 1 5 5 1 4-12 7-9 4-10-1-10-4h-10l-3-1h-28l-5-1h-27l-1 1h-7l-6-1-5 2-11 1-5-4h-11v2l-5-1-3-3v-2l-4 1v-2l-4 1-6-1-12 5-4-1 1-4 3-5h2l1-4 6-10 1-3h2l1-4 5-6z" fill="#F49278"/>
<path transform="translate(1017,391)" d="m0 0 4 2 12 21 11 21 13 34-2 4-5 1-5-4-4 1h-5l-2 4-9-2-3 1-1 3-4 1-1 2-4-1-1-2-6 2-1 2-5-5-5-1-3-4-2-4-2 1v-2l-6 1 3-9 8-16 8-19 15-30z" fill="#BBB885"/>
<path transform="translate(833,820)" d="m0 0h1v6h5l3 6 2 5 8 1 6 3 5 1v-2l11 1 2-1h8l5-1h5l2 2 11-3h24l11 3 5-1 3 2 1 3 6 2 5 1 2 6 5-2-1 5-4 1-2-2-11 2h-17l-1 3-4-1h-11l-11 3v-2l-6 2h-5v-2h-5v2l-19-1v-2l-4-1-3-3-10-1-5-1-2-3-5-1-1-2-3-1v-2l-7-1-7-12 3-5 2-5h3z" fill="#F5858B"/>
<path transform="translate(486,699)" d="m0 0 1 2 5 1 1 1h8l3 1 5 1 2 5 4 1-1 2 7-1 1 4-4 4-13 3-6 3-4-2-1-2-6 2-4 1v2h-2v-2l-4 3-10 2-3 1-2-1v3l-4 2-6-1-6-3-10 2v-3l-9 2v-2l-7 2-10-1-2-2-2 1 1-11 2-5 1 4 4 7 2-3 6-3 3-3 11-8 2-5 5 1 5-1 14-1v2h5v-2l7-1 9-1z" fill="#F39E6B"/>
<path transform="translate(896,703)" d="m0 0h6v2l10 2 5-3h7l-2 3 6-1 10-3 7 1 5 2v2l7-1 5-1 7 1v5l4 3 3 1v-2l4-1 8 1 5 1 4-1 3 2v3l-12 1-1 2-7-2-1 3-7 1h-2-14l-4-1-4 3-10-2v2l-9 2-7 1-10-4-3 2-1 3h-8l-6 2-8 3h-3l-2 1v-2l-4 2-2-1-5 1-4-3-2-5 1-3-2-1-2-2h-3l2-6 5-10 4 1 3-2-3 15 1 9 6-2 1-3 8-7 3-4 5-6z" fill="#F39F6A"/>
<path transform="translate(264,766)" d="m0 0h4v7l-9 19-3 7-4 10-12 23-7 14-4 2-9-11-4-8-2-8-11-23-8-19 5-1 6 3 5 8 1 1 2-2 12 6 6 1v-5l5-1 2 2 7-2 1-2h2v-2h2l2-5 3-4h2l2-5z" fill="#F98374"/>
<path transform="translate(1010,840)" d="m0 0 1 2 4-1-2 4-5 6-16 14-14 8-20 8-22 6-31 4-22-3-19-5-4-2v-2l-4-2-7-2-6-1v-2l-5-1-1-3h-3l1-4 1-1 8 1v2l11 3 2 2 11 2 5 2 10 1 18-1 9-2 4 1 10-1 1-1 15-1 9-2 1-2 12-2 9-3 3-3 14-5 15-10z" fill="#F87688"/>
<path transform="translate(557,699)" d="m0 0 7 1 15 2h4l3 5 6 3 6 2 2 2-2-12 5 4 1 2 3 1 1-7 3 3 12 25 8 18-6-1v-4l-4-2-8-12-2 1-2-6h-2v-2h-2v-2h-2l-1 5-6 3-4 6-10-4-7-1v-2h-4l-4-4-9-2-6-3-9-1-7-1-1-2 4-1h11l1-4 6-2z" fill="#F39E6B"/>
<path transform="translate(287,720)" d="m0 0 3 2v6l-3 7-1-2h-2v-2l-4 1-13 16-5 6h-3v-2l-9 3-5 2-14-3-4-3-5-1h-8l-9-2-3-1-3 1v-2l-3 1-5-5 2-4 11-7 5 1h9l7-1 3 1v2l16-2 8 2 9-1 6-1h3l5-2 2-2 5-2z" fill="#F1986F"/>
<path transform="translate(301,691)" d="m0 0 4 1-1 5-7 14-5 14-1 2h-2v-5h-3l-5 6-5 2-4 3-5 1v-2l-12 3-9-1-3-1-6 1h-9v-2l-10 1h-9l-5-1-7 5-5 3-4 4-5 1-3-10-1-11-1-8-1-2 5-2 5 5 7 3v2l11 2 6 1 6-2h6v2l4-1v2h12l2 1v2l5-1 3-3h8l3 2-1 3 7-3 8 1h2l2-5 8-13 6-5h2l3-9 1-2h2z" fill="#F39F6B"/>
<path transform="translate(612,728)" d="m0 0 4 4 7 10 2 1v4l6 1 10 19 6 10 7 14 6 9 14 25 2 3-1 5-5-2v-2l-3-1-5-9v-2h-2l-5-8-4-2-6-11-3-3-3-8-1-2 1-2-3 1-4-6-7-8-3-2v-3l-5-2-3-2 1-1-3-2 1-3h3l-2-4-2-11z" fill="#F8916E"/>
<path transform="translate(676,830)" d="m0 0 3 3 10 16 7 11 8 11 4 6 14 15 6 8 4 5v2l4 2 6 7 5 5 5 4v2l4 2 11 8 8 6-3 3-6-2-13-10-9-7-5-6-4-3v-2l-3-1-7-8v-2l-4-2v-2h-2l-3-4v-2h-2l-8-10-2-1-4-7-2-4h-2l-5-8-2-1-4-8-6-8-5-9v-2h-2l-2-6 5 2z" fill="#F77788"/>
<path transform="translate(1046,777)" d="m0 0 7 2-1 6-8 17-9 15-11 16h-3l-1-7 1-3h2l1-8 5-11 3-7 7-11 3-5z" fill="#F88474"/>
<path transform="translate(635,765)" d="m0 0 1 2h2l4 8 7 11 3 1 8 13 14 25 2 3-1 5-5-2v-2l-3-1-5-9v-2h-2l-5-8-4-2-6-11-3-3-3-8-1-2v-5l-5-10z" fill="#F88474"/>
<path transform="translate(1061,748)" d="m0 0 3 1-9 29-2 2-7-2-3 2h-3l-1-2-2 1-3-6v-2l-2-1 3-5 3-3-1-3h5v2l7-2 2-4 6-6z" fill="#F8916E"/>
<path transform="translate(1070,705)" d="m0 0 4 1 1 3-2 5-5 22-4 12-7 2-3-13v-14l5-5 5-3 4-9z" fill="#F39E6B"/>
<path transform="translate(855,731)" d="m0 0 4 2 1 7-1 8h-2l-2 6h-2l-1 4-5 9-2 4h-2l-2 5-5 4h-4l1-7 8-16 8-17 3-7z" fill="#F7916E"/>
<path transform="translate(401,715)" d="m0 0 1 3 3 1-2 7-2 15-4 4-7 11-4 7-4 8h-7l2-7 6-13 8-16 8-15z" fill="#F7916E"/>
<path transform="translate(593,164)" d="m0 0h59l5 2-3 2h-72v-1l9-2z" fill="#82C7C8"/>
<path transform="translate(1045,713)" d="m0 0 2 3 4 5 1 10-4 3h-2l-2-3-5-2-5 1-4-2 2-4h2l-1-3h4l1-4 6-3z" fill="#F49F6B"/>
<path transform="translate(810,828)" d="m0 0h1v5l2 1 2 9 3 3 3 8 8 4-3 3-6-2-12-11-4-6v-7l2-3 3-1z" fill="#F77787"/>
<path transform="translate(411,699)" d="m0 0 4 1-3 10v3h-4l-1 3-5 2 1-7 4-9 4-1z" fill="#F39E6B"/>
<path transform="translate(329,872)" d="m0 0 3 1-3 5-5 7h-2l-2 6-2 2-1-3 7-14h2l1-3z" fill="#F77789"/>
<path transform="translate(301,691)" d="m0 0 4 1-1 5-7 14h-2l1-7h2v-10h2z" fill="#EFA163"/>
<path transform="translate(623,164)" d="m0 0h29v3h-17l-12-2z" fill="#9DC1AD"/>
<path transform="translate(886,984)" d="m0 0h8l3 2-1 4-7 3z" fill="#F275A2"/>
<path transform="translate(363,795)" d="m0 0h3v6l-3 5-4 4-2-3z" fill="#F78676"/>
<path transform="translate(885,665)" d="m0 0 1 2-3 8-8 16-3 2 2-6 8-16z" fill="#ECA364"/>
<path transform="translate(839,872)" d="m0 0h4v2l10 1 2-1 5 6-8-1-2-2-9-2-2-1z" fill="#F1868C"/>
<path transform="translate(554,168)" d="m0 0h17v1l-11 2-1 1h-7l-2-2z" fill="#84C6C6"/>
<path transform="translate(644,774)" d="m0 0 3 3 4 8v2l-3-1-5-8z" fill="#F09379"/>
<path transform="translate(530,172)" d="m0 0h8v1l-10 3h-9l4-2z" fill="#83C7C7"/>
<path transform="translate(653,165)" d="m0 0 4 1-3 2h-18l2-2h14z" fill="#81C7CA"/>
<path transform="translate(674,168)" d="m0 0h14l5 1-2 3-5-1-1-1-11-1z" fill="#82C7C9"/>
<path transform="translate(880,884)" d="m0 0 8 1v2l3 1h-8l-4-1z" fill="#F0878B"/>
<path transform="translate(626,739)" d="m0 0 3 4 2 5-6-1v-6z" fill="#F2986E"/>
<path transform="translate(612,710)" d="m0 0 3 3 4 8-1 3-3-4-3-6z" fill="#EDA264"/>
<path transform="translate(510,176)" d="m0 0h9l-4 3-7 1v-3z" fill="#87C9CA"/>
<path transform="translate(879,680)" d="m0 0 1 2-5 9-3 2 2-6 4-6z" fill="#EFA163"/>
</svg>
